<svg width="200" height="53" viewBox="0 0 200 53" fill="none" xmlns="http://www.w3.org/2000/svg">
<path d="M22.5586 47.3742C22.8307 46.6737 22.9604 45.926 22.9402 45.1748C22.9817 43.0929 23.5381 41.0536 24.5598 39.2392C25.5789 37.4277 27.0323 35.898 28.7891 34.7874C29.4396 34.4385 30.0126 33.9612 30.4733 33.3845C30.9341 32.8077 31.273 32.1435 31.4697 31.432C31.6663 30.7205 31.7166 29.9764 31.6174 29.2449C31.5182 28.5135 31.2716 27.8097 30.8926 27.1762C30.3863 26.3301 29.6577 25.6364 28.7891 25.1748C28.2912 24.8294 27.8129 24.4573 27.357 24.0587L26.2143 22.9399C24.1205 20.7387 22.9463 17.8211 22.9318 14.7832C22.9534 14.0318 22.8243 13.2837 22.5522 12.5831C22.28 11.8824 21.8703 11.2433 21.3472 10.7035C20.8264 10.1643 20.2023 9.73559 19.5122 9.44291C18.822 9.15023 18.08 8.9996 17.3304 9C16.5812 9.00106 15.8398 9.15236 15.1501 9.44496C14.4604 9.73756 13.8364 10.1655 13.315 10.7035C12.7928 11.2442 12.3837 11.8837 12.1116 12.5844C11.8395 13.2852 11.7099 14.0332 11.7304 14.7846C11.7426 15.7601 12.0113 16.7151 12.5094 17.5538C13.0058 18.3912 13.7146 19.0825 14.5639 19.558C18.0031 21.7343 20.3961 25.8951 20.3961 29.9874C20.3876 32.9989 19.2359 35.8948 17.1737 38.0895L14.5723 40.4C13.7234 40.8741 13.0143 41.565 12.5164 42.4042C12.0171 43.242 11.75 44.1986 11.7374 45.1748C11.716 45.9262 11.8452 46.6742 12.1173 47.3749C12.3894 48.0755 12.7991 48.7146 13.322 49.2545C13.8429 49.7936 14.467 50.2222 15.1571 50.5149C15.8472 50.8076 16.5892 50.9583 17.3388 50.958C18.0882 50.9572 18.8298 50.806 19.5198 50.5134C20.2097 50.2208 20.834 49.7927 21.3556 49.2545C21.8775 48.7139 22.2865 48.0747 22.5586 47.3742Z" fill="#8DA2FB"/>
<path d="M30.1556 17.8951C29.5388 16.9692 29.2101 15.8797 29.2101 14.7664C29.2111 13.2751 29.8018 11.8448 30.8535 10.7874C31.7679 9.86747 32.9739 9.29441 34.2647 9.16656C35.5554 9.03871 36.8505 9.36403 37.9276 10.0867C38.8502 10.7062 39.5686 11.5851 39.9919 12.6126C40.4153 13.6412 40.5259 14.7719 40.3097 15.8631C40.0935 16.9542 39.5602 17.9574 38.7765 18.7469C37.9953 19.5342 36.9972 20.0708 35.9095 20.2883C34.8219 20.5058 33.6942 20.3942 32.6702 19.9678C31.6453 19.5411 30.7702 18.8197 30.1556 17.8951Z" fill="#8DA2FB"/>
<path d="M31.701 40.4937C32.6227 39.8755 33.7066 39.5455 34.8143 39.5455V39.5427C35.5506 39.5435 36.2795 39.6898 36.9592 39.973C37.6389 40.2562 38.256 40.6708 38.7751 41.193C39.6925 42.1159 40.2632 43.3273 40.3906 44.6223C40.518 45.9174 40.1944 47.2167 39.4744 48.3007C38.8599 49.2265 37.9841 49.9489 36.9584 50.3762C35.9344 50.8026 34.8067 50.9141 33.7191 50.6967C32.6314 50.4792 31.6333 49.9426 30.8521 49.1552C30.0682 48.3656 29.5347 47.3623 29.3185 46.2708C29.1023 45.1794 29.213 44.0484 29.6367 43.0196C30.0601 41.9922 30.7785 41.1132 31.701 40.4937Z" fill="#8DA2FB"/>
<path d="M48.2087 26.8434C48.8239 27.7689 49.1525 28.8566 49.1528 29.9694C49.1518 31.4611 48.5611 32.8918 47.5094 33.9497C46.9902 34.4717 46.373 34.8862 45.6934 35.1693C45.0137 35.4525 44.2849 35.5989 43.5486 35.6C42.4397 35.6 41.3559 35.2699 40.4353 34.6517C39.5127 34.0323 38.7943 33.1533 38.3709 32.1259C37.9472 31.0971 37.8365 29.9661 38.0527 28.8746C38.2689 27.7832 38.8024 26.7798 39.5863 25.9902C40.3677 25.2026 41.3661 24.6658 42.454 24.4483C43.5419 24.2308 44.6699 24.3426 45.694 24.7692C46.7191 25.1964 47.5943 25.9183 48.2087 26.8434Z" fill="#8DA2FB"/>
<path d="M5.48988 25.2895C6.41156 24.6713 7.49407 24.3413 8.60316 24.3413C9.33931 24.3428 10.0679 24.4895 10.7473 24.7729C11.4267 25.0564 12.0436 25.4709 12.5626 25.993C13.4795 26.9156 14.0499 28.1264 14.1773 29.4209C14.3047 30.7154 13.9814 32.0142 13.2619 33.0979C12.6475 34.0229 11.7723 34.7448 10.7472 35.172C9.72294 35.5963 8.59571 35.7068 7.50854 35.4894C6.42138 35.272 5.4233 34.7366 4.64093 33.951C3.85729 33.1616 3.32399 32.1584 3.1078 31.0673C2.89161 29.9761 3.00213 28.8454 3.42554 27.8168C3.84875 26.7888 4.56711 25.9094 5.48988 25.2895Z" fill="#8DA2FB"/>
<path d="M69.88 48.48C68.12 48.48 66.456 48.32 64.888 48C63.32 47.648 61.96 47.232 60.808 46.752C59.656 46.272 58.808 45.824 58.264 45.408V36.816C59.8 37.68 61.736 38.496 64.072 39.264C66.408 40 69 40.368 71.848 40.368C73 40.368 73.848 40.224 74.392 39.936C74.968 39.616 75.256 39.072 75.256 38.304C75.256 37.472 74.616 36.784 73.336 36.24C72.088 35.664 70.104 34.96 67.384 34.128C65.272 33.456 63.464 32.72 61.96 31.92C60.488 31.088 59.352 30.064 58.552 28.848C57.784 27.6 57.4 26.016 57.4 24.096C57.4 22.112 57.912 20.32 58.936 18.72C59.96 17.12 61.56 15.856 63.736 14.928C65.912 14 68.696 13.536 72.088 13.536C73.112 13.536 74.2 13.584 75.352 13.68C76.536 13.744 77.48 13.84 78.184 13.968L83.608 17.952L81.736 23.808L70.36 20.688C69.048 20.688 68.072 20.96 67.432 21.504C66.824 22.048 66.52 22.704 66.52 23.472C66.52 24.4 67.048 25.136 68.104 25.68C69.16 26.224 70.68 26.768 72.664 27.312C75.8 28.176 78.232 29.136 79.96 30.192C81.688 31.248 82.904 32.448 83.608 33.792C84.312 35.104 84.664 36.592 84.664 38.256C84.664 41.328 83.432 43.808 80.968 45.696C78.504 47.552 74.808 48.48 69.88 48.48ZM90.4338 48V21.744L89.4738 16.896L90.4338 14.016H105.794C108.13 14.016 110.226 14.384 112.082 15.12C113.97 15.824 115.458 17.04 116.546 18.768C117.666 20.464 118.226 22.816 118.226 25.824C118.226 28.544 117.73 30.752 116.738 32.448C115.746 34.112 114.37 35.36 112.61 36.192L113.09 36.72L117.842 42.672L120.578 45.12V48H109.778L103.058 37.776H99.0738V40.272L99.5538 45.072L99.0738 48H90.4338ZM99.0738 30.24H103.778C105.442 30.24 106.77 29.936 107.762 29.328C108.754 28.688 109.25 27.52 109.25 25.824C109.25 24.64 109.01 23.76 108.53 23.184C108.05 22.576 107.378 22.176 106.514 21.984C105.682 21.792 104.706 21.696 103.586 21.696H98.5938L99.0738 30.24ZM124.887 48V21.696L123.927 16.896L124.887 14.016H141.207C144.823 14.016 147.719 14.688 149.895 16.032C152.071 17.376 153.159 19.552 153.159 22.56C153.159 24.064 152.903 25.424 152.391 26.64C151.879 27.856 151.143 28.8 150.183 29.472C152.359 30.176 153.959 31.248 154.983 32.688C156.007 34.128 156.519 35.84 156.519 37.824C156.519 41.312 155.495 43.888 153.447 45.552C151.431 47.184 148.471 48 144.567 48H124.887ZM133.527 27.216H141.111C142.199 27.216 142.983 26.96 143.463 26.448C143.943 25.936 144.183 25.264 144.183 24.432C144.183 23.376 143.831 22.656 143.127 22.272C142.423 21.888 141.591 21.696 140.631 21.696H133.527V27.216ZM133.527 40.32H143.127C144.279 40.32 145.127 40.176 145.671 39.888C146.247 39.6 146.615 39.232 146.775 38.784C146.967 38.336 147.063 37.872 147.063 37.392C147.063 36.56 146.759 35.856 146.151 35.28C145.575 34.672 144.727 34.368 143.607 34.368H133.527V40.32Z" fill="#4338CA"/>
</svg>
