<svg width="206" height="67" viewBox="0 0 206 67" fill="none" xmlns="http://www.w3.org/2000/svg">
<path d="M22.5586 47.3742C22.8307 46.6737 22.9604 45.926 22.9402 45.1748C22.9817 43.0929 23.5381 41.0536 24.5598 39.2392C25.5789 37.4277 27.0323 35.898 28.7891 34.7874C29.4396 34.4385 30.0126 33.9612 30.4733 33.3845C30.9341 32.8077 31.273 32.1435 31.4697 31.432C31.6663 30.7205 31.7166 29.9764 31.6174 29.2449C31.5182 28.5135 31.2716 27.8097 30.8926 27.1762C30.3863 26.3301 29.6577 25.6364 28.7891 25.1748C28.2912 24.8294 27.8129 24.4573 27.357 24.0587L26.2143 22.9399C24.1205 20.7387 22.9463 17.8211 22.9318 14.7832C22.9534 14.0318 22.8243 13.2837 22.5522 12.5831C22.28 11.8824 21.8703 11.2433 21.3472 10.7035C20.8264 10.1643 20.2023 9.73559 19.5122 9.44291C18.822 9.15023 18.08 8.9996 17.3304 9C16.5812 9.00106 15.8398 9.15236 15.1501 9.44496C14.4604 9.73756 13.8364 10.1655 13.315 10.7035C12.7928 11.2442 12.3837 11.8837 12.1116 12.5844C11.8395 13.2852 11.7099 14.0332 11.7304 14.7846C11.7426 15.7601 12.0113 16.7151 12.5094 17.5538C13.0058 18.3912 13.7146 19.0825 14.5639 19.558C18.0031 21.7343 20.3961 25.8951 20.3961 29.9874C20.3876 32.9989 19.2359 35.8948 17.1737 38.0895L14.5723 40.4C13.7234 40.8741 13.0143 41.565 12.5164 42.4042C12.0171 43.242 11.75 44.1986 11.7374 45.1748C11.716 45.9262 11.8452 46.6742 12.1173 47.3749C12.3894 48.0755 12.7991 48.7146 13.322 49.2545C13.8429 49.7936 14.467 50.2222 15.1571 50.5149C15.8472 50.8076 16.5892 50.9583 17.3388 50.958C18.0882 50.9572 18.8298 50.806 19.5198 50.5134C20.2097 50.2208 20.834 49.7927 21.3556 49.2545C21.8775 48.7139 22.2865 48.0747 22.5586 47.3742Z" fill="#8DA2FB"/>
<path d="M30.1556 17.8951C29.5388 16.9692 29.2101 15.8797 29.2101 14.7664C29.2111 13.2751 29.8018 11.8448 30.8535 10.7874C31.7679 9.86747 32.9739 9.29441 34.2647 9.16656C35.5554 9.03871 36.8505 9.36403 37.9276 10.0867C38.8502 10.7062 39.5686 11.5851 39.9919 12.6126C40.4153 13.6412 40.5259 14.7719 40.3097 15.8631C40.0935 16.9542 39.5602 17.9574 38.7765 18.7469C37.9953 19.5342 36.9972 20.0708 35.9095 20.2883C34.8219 20.5058 33.6942 20.3942 32.6702 19.9678C31.6453 19.5411 30.7702 18.8197 30.1556 17.8951Z" fill="#8DA2FB"/>
<path d="M31.701 40.4937C32.6227 39.8755 33.7066 39.5455 34.8143 39.5455V39.5427C35.5506 39.5435 36.2795 39.6898 36.9592 39.973C37.6389 40.2562 38.256 40.6708 38.7751 41.193C39.6925 42.1159 40.2632 43.3273 40.3906 44.6223C40.518 45.9174 40.1944 47.2167 39.4744 48.3007C38.8599 49.2265 37.9841 49.9489 36.9584 50.3762C35.9344 50.8026 34.8067 50.9141 33.7191 50.6967C32.6314 50.4792 31.6333 49.9426 30.8521 49.1552C30.0682 48.3656 29.5347 47.3623 29.3185 46.2708C29.1023 45.1794 29.213 44.0484 29.6367 43.0196C30.0601 41.9922 30.7785 41.1132 31.701 40.4937Z" fill="#8DA2FB"/>
<path d="M48.2087 26.8434C48.8239 27.7689 49.1525 28.8566 49.1528 29.9694C49.1518 31.4611 48.5611 32.8918 47.5094 33.9497C46.9902 34.4717 46.373 34.8862 45.6934 35.1693C45.0137 35.4525 44.2849 35.5989 43.5486 35.6C42.4397 35.6 41.3559 35.2699 40.4353 34.6517C39.5127 34.0323 38.7943 33.1533 38.3709 32.1259C37.9472 31.0971 37.8365 29.9661 38.0527 28.8746C38.2689 27.7832 38.8024 26.7798 39.5863 25.9902C40.3677 25.2026 41.3661 24.6658 42.454 24.4483C43.5419 24.2308 44.6699 24.3426 45.694 24.7692C46.7191 25.1964 47.5943 25.9183 48.2087 26.8434Z" fill="#8DA2FB"/>
<path d="M5.48988 25.2895C6.41156 24.6713 7.49407 24.3413 8.60316 24.3413C9.33931 24.3428 10.0679 24.4895 10.7473 24.7729C11.4267 25.0564 12.0436 25.4709 12.5626 25.993C13.4795 26.9156 14.0499 28.1264 14.1773 29.4209C14.3047 30.7154 13.9814 32.0142 13.2619 33.0979C12.6475 34.0229 11.7723 34.7448 10.7472 35.172C9.72294 35.5963 8.59571 35.7068 7.50854 35.4894C6.42138 35.272 5.4233 34.7366 4.64093 33.951C3.85729 33.1616 3.32399 32.1584 3.1078 31.0673C2.89161 29.9761 3.00213 28.8454 3.42554 27.8168C3.84875 26.7888 4.56711 25.9094 5.48988 25.2895Z" fill="#8DA2FB"/>
<path d="M69.88 48.48C68.12 48.48 66.456 48.32 64.888 48C63.32 47.648 61.96 47.232 60.808 46.752C59.656 46.272 58.808 45.824 58.264 45.408V36.816C59.8 37.68 61.736 38.496 64.072 39.264C66.408 40 69 40.368 71.848 40.368C73 40.368 73.848 40.224 74.392 39.936C74.968 39.616 75.256 39.072 75.256 38.304C75.256 37.472 74.616 36.784 73.336 36.24C72.088 35.664 70.104 34.96 67.384 34.128C65.272 33.456 63.464 32.72 61.96 31.92C60.488 31.088 59.352 30.064 58.552 28.848C57.784 27.6 57.4 26.016 57.4 24.096C57.4 22.112 57.912 20.32 58.936 18.72C59.96 17.12 61.56 15.856 63.736 14.928C65.912 14 68.696 13.536 72.088 13.536C73.112 13.536 74.2 13.584 75.352 13.68C76.536 13.744 77.48 13.84 78.184 13.968L83.608 17.952L81.736 23.808L70.36 20.688C69.048 20.688 68.072 20.96 67.432 21.504C66.824 22.048 66.52 22.704 66.52 23.472C66.52 24.4 67.048 25.136 68.104 25.68C69.16 26.224 70.68 26.768 72.664 27.312C75.8 28.176 78.232 29.136 79.96 30.192C81.688 31.248 82.904 32.448 83.608 33.792C84.312 35.104 84.664 36.592 84.664 38.256C84.664 41.328 83.432 43.808 80.968 45.696C78.504 47.552 74.808 48.48 69.88 48.48ZM90.4338 48V21.744L89.4738 16.896L90.4338 14.016H105.794C108.13 14.016 110.226 14.384 112.082 15.12C113.97 15.824 115.458 17.04 116.546 18.768C117.666 20.464 118.226 22.816 118.226 25.824C118.226 28.544 117.73 30.752 116.738 32.448C115.746 34.112 114.37 35.36 112.61 36.192L113.09 36.72L117.842 42.672L120.578 45.12V48H109.778L103.058 37.776H99.0738V40.272L99.5538 45.072L99.0738 48H90.4338ZM99.0738 30.24H103.778C105.442 30.24 106.77 29.936 107.762 29.328C108.754 28.688 109.25 27.52 109.25 25.824C109.25 24.64 109.01 23.76 108.53 23.184C108.05 22.576 107.378 22.176 106.514 21.984C105.682 21.792 104.706 21.696 103.586 21.696H98.5938L99.0738 30.24ZM124.887 48V21.696L123.927 16.896L124.887 14.016H141.207C144.823 14.016 147.719 14.688 149.895 16.032C152.071 17.376 153.159 19.552 153.159 22.56C153.159 24.064 152.903 25.424 152.391 26.64C151.879 27.856 151.143 28.8 150.183 29.472C152.359 30.176 153.959 31.248 154.983 32.688C156.007 34.128 156.519 35.84 156.519 37.824C156.519 41.312 155.495 43.888 153.447 45.552C151.431 47.184 148.471 48 144.567 48H124.887ZM133.527 27.216H141.111C142.199 27.216 142.983 26.96 143.463 26.448C143.943 25.936 144.183 25.264 144.183 24.432C144.183 23.376 143.831 22.656 143.127 22.272C142.423 21.888 141.591 21.696 140.631 21.696H133.527V27.216ZM133.527 40.32H143.127C144.279 40.32 145.127 40.176 145.671 39.888C146.247 39.6 146.615 39.232 146.775 38.784C146.967 38.336 147.063 37.872 147.063 37.392C147.063 36.56 146.759 35.856 146.151 35.28C145.575 34.672 144.727 34.368 143.607 34.368H133.527V40.32Z" fill="#FFFFFF"/>
<path d="M12.98 64.07C12.52 64.07 12.1067 63.99 11.74 63.83C11.38 63.6633 11.0967 63.4367 10.89 63.15C10.6833 62.8567 10.5767 62.52 10.57 62.14H11.54C11.5733 62.4667 11.7067 62.7433 11.94 62.97C12.18 63.19 12.5267 63.3 12.98 63.3C13.4133 63.3 13.7533 63.1933 14 62.98C14.2533 62.76 14.38 62.48 14.38 62.14C14.38 61.8733 14.3067 61.6567 14.16 61.49C14.0133 61.3233 13.83 61.1967 13.61 61.11C13.39 61.0233 13.0933 60.93 12.72 60.83C12.26 60.71 11.89 60.59 11.61 60.47C11.3367 60.35 11.1 60.1633 10.9 59.91C10.7067 59.65 10.61 59.3033 10.61 58.87C10.61 58.49 10.7067 58.1533 10.9 57.86C11.0933 57.5667 11.3633 57.34 11.71 57.18C12.0633 57.02 12.4667 56.94 12.92 56.94C13.5733 56.94 14.1067 57.1033 14.52 57.43C14.94 57.7567 15.1767 58.19 15.23 58.73H14.23C14.1967 58.4633 14.0567 58.23 13.81 58.03C13.5633 57.8233 13.2367 57.72 12.83 57.72C12.45 57.72 12.14 57.82 11.9 58.02C11.66 58.2133 11.54 58.4867 11.54 58.84C11.54 59.0933 11.61 59.3 11.75 59.46C11.8967 59.62 12.0733 59.7433 12.28 59.83C12.4933 59.91 12.79 60.0033 13.17 60.11C13.63 60.2367 14 60.3633 14.28 60.49C14.56 60.61 14.8 60.8 15 61.06C15.2 61.3133 15.3 61.66 15.3 62.1C15.3 62.44 15.21 62.76 15.03 63.06C14.85 63.36 14.5833 63.6033 14.23 63.79C13.8767 63.9767 13.46 64.07 12.98 64.07ZM17.1091 57.63C16.9358 57.63 16.7891 57.57 16.6691 57.45C16.5491 57.33 16.4891 57.1833 16.4891 57.01C16.4891 56.8367 16.5491 56.69 16.6691 56.57C16.7891 56.45 16.9358 56.39 17.1091 56.39C17.2758 56.39 17.4158 56.45 17.5291 56.57C17.6491 56.69 17.7091 56.8367 17.7091 57.01C17.7091 57.1833 17.6491 57.33 17.5291 57.45C17.4158 57.57 17.2758 57.63 17.1091 57.63ZM17.5491 58.52V64H16.6391V58.52H17.5491ZM21.0401 64.09C20.6201 64.09 20.2434 64.02 19.9101 63.88C19.5767 63.7333 19.3134 63.5333 19.1201 63.28C18.9267 63.02 18.8201 62.7233 18.8001 62.39H19.7401C19.7667 62.6633 19.8934 62.8867 20.1201 63.06C20.3534 63.2333 20.6567 63.32 21.0301 63.32C21.3767 63.32 21.6501 63.2433 21.8501 63.09C22.0501 62.9367 22.1501 62.7433 22.1501 62.51C22.1501 62.27 22.0434 62.0933 21.8301 61.98C21.6167 61.86 21.2867 61.7433 20.8401 61.63C20.4334 61.5233 20.1001 61.4167 19.8401 61.31C19.5867 61.1967 19.3667 61.0333 19.1801 60.82C19.0001 60.6 18.9101 60.3133 18.9101 59.96C18.9101 59.68 18.9934 59.4233 19.1601 59.19C19.3267 58.9567 19.5634 58.7733 19.8701 58.64C20.1767 58.5 20.5267 58.43 20.9201 58.43C21.5267 58.43 22.0167 58.5833 22.3901 58.89C22.7634 59.1967 22.9634 59.6167 22.9901 60.15H22.0801C22.0601 59.8633 21.9434 59.6333 21.7301 59.46C21.5234 59.2867 21.2434 59.2 20.8901 59.2C20.5634 59.2 20.3034 59.27 20.1101 59.41C19.9167 59.55 19.8201 59.7333 19.8201 59.96C19.8201 60.14 19.8767 60.29 19.9901 60.41C20.1101 60.5233 20.2567 60.6167 20.4301 60.69C20.6101 60.7567 20.8567 60.8333 21.1701 60.92C21.5634 61.0267 21.8834 61.1333 22.1301 61.24C22.3767 61.34 22.5867 61.4933 22.7601 61.7C22.9401 61.9067 23.0334 62.1767 23.0401 62.51C23.0401 62.81 22.9567 63.08 22.7901 63.32C22.6234 63.56 22.3867 63.75 22.0801 63.89C21.7801 64.0233 21.4334 64.09 21.0401 64.09ZM25.4347 59.27V62.5C25.4347 62.7667 25.4914 62.9567 25.6047 63.07C25.718 63.1767 25.9147 63.23 26.1947 63.23H26.8647V64H26.0447C25.538 64 25.158 63.8833 24.9047 63.65C24.6514 63.4167 24.5247 63.0333 24.5247 62.5V59.27H23.8147V58.52H24.5247V57.14H25.4347V58.52H26.8647V59.27H25.4347ZM32.9673 61.05C32.9673 61.2233 32.9573 61.4067 32.9373 61.6H28.5573C28.5906 62.14 28.7739 62.5633 29.1073 62.87C29.4473 63.17 29.8573 63.32 30.3373 63.32C30.7306 63.32 31.0573 63.23 31.3173 63.05C31.5839 62.8633 31.7706 62.6167 31.8773 62.31H32.8573C32.7106 62.8367 32.4173 63.2667 31.9773 63.6C31.5373 63.9267 30.9906 64.09 30.3373 64.09C29.8173 64.09 29.3506 63.9733 28.9373 63.74C28.5306 63.5067 28.2106 63.1767 27.9773 62.75C27.7439 62.3167 27.6273 61.8167 27.6273 61.25C27.6273 60.6833 27.7406 60.1867 27.9673 59.76C28.1939 59.3333 28.5106 59.0067 28.9173 58.78C29.3306 58.5467 29.8039 58.43 30.3373 58.43C30.8573 58.43 31.3173 58.5433 31.7173 58.77C32.1173 58.9967 32.4239 59.31 32.6373 59.71C32.8573 60.1033 32.9673 60.55 32.9673 61.05ZM32.0273 60.86C32.0273 60.5133 31.9506 60.2167 31.7973 59.97C31.6439 59.7167 31.4339 59.5267 31.1673 59.4C30.9073 59.2667 30.6173 59.2 30.2973 59.2C29.8373 59.2 29.4439 59.3467 29.1173 59.64C28.7973 59.9333 28.6139 60.34 28.5673 60.86H32.0273ZM40.7584 58.42C41.1851 58.42 41.5651 58.51 41.8984 58.69C42.2318 58.8633 42.4951 59.1267 42.6884 59.48C42.8818 59.8333 42.9784 60.2633 42.9784 60.77V64H42.0784V60.9C42.0784 60.3533 41.9418 59.9367 41.6684 59.65C41.4018 59.3567 41.0384 59.21 40.5784 59.21C40.1051 59.21 39.7284 59.3633 39.4484 59.67C39.1684 59.97 39.0284 60.4067 39.0284 60.98V64H38.1284V60.9C38.1284 60.3533 37.9918 59.9367 37.7184 59.65C37.4518 59.3567 37.0884 59.21 36.6284 59.21C36.1551 59.21 35.7784 59.3633 35.4984 59.67C35.2184 59.97 35.0784 60.4067 35.0784 60.98V64H34.1684V58.52H35.0784V59.31C35.2584 59.0233 35.4984 58.8033 35.7984 58.65C36.1051 58.4967 36.4418 58.42 36.8084 58.42C37.2684 58.42 37.6751 58.5233 38.0284 58.73C38.3818 58.9367 38.6451 59.24 38.8184 59.64C38.9718 59.2533 39.2251 58.9533 39.5784 58.74C39.9318 58.5267 40.3251 58.42 40.7584 58.42ZM44.1312 61.24C44.1312 60.68 44.2445 60.19 44.4712 59.77C44.6978 59.3433 45.0078 59.0133 45.4012 58.78C45.8012 58.5467 46.2445 58.43 46.7312 58.43C47.2112 58.43 47.6278 58.5333 47.9812 58.74C48.3345 58.9467 48.5978 59.2067 48.7712 59.52V58.52H49.6912V64H48.7712V62.98C48.5912 63.3 48.3212 63.5667 47.9612 63.78C47.6078 63.9867 47.1945 64.09 46.7212 64.09C46.2345 64.09 45.7945 63.97 45.4012 63.73C45.0078 63.49 44.6978 63.1533 44.4712 62.72C44.2445 62.2867 44.1312 61.7933 44.1312 61.24ZM48.7712 61.25C48.7712 60.8367 48.6878 60.4767 48.5212 60.17C48.3545 59.8633 48.1278 59.63 47.8412 59.47C47.5612 59.3033 47.2512 59.22 46.9112 59.22C46.5712 59.22 46.2612 59.3 45.9812 59.46C45.7012 59.62 45.4778 59.8533 45.3112 60.16C45.1445 60.4667 45.0612 60.8267 45.0612 61.24C45.0612 61.66 45.1445 62.0267 45.3112 62.34C45.4778 62.6467 45.7012 62.8833 45.9812 63.05C46.2612 63.21 46.5712 63.29 46.9112 63.29C47.2512 63.29 47.5612 63.21 47.8412 63.05C48.1278 62.8833 48.3545 62.6467 48.5212 62.34C48.6878 62.0267 48.7712 61.6633 48.7712 61.25ZM53.555 61.24C53.555 60.68 53.6683 60.19 53.895 59.77C54.1217 59.3433 54.4317 59.0133 54.825 58.78C55.225 58.5467 55.6717 58.43 56.165 58.43C56.5917 58.43 56.9883 58.53 57.355 58.73C57.7217 58.9233 58.0017 59.18 58.195 59.5V56.6H59.115V64H58.195V62.97C58.015 63.2967 57.7483 63.5667 57.395 63.78C57.0417 63.9867 56.6283 64.09 56.155 64.09C55.6683 64.09 55.225 63.97 54.825 63.73C54.4317 63.49 54.1217 63.1533 53.895 62.72C53.6683 62.2867 53.555 61.7933 53.555 61.24ZM58.195 61.25C58.195 60.8367 58.1117 60.4767 57.945 60.17C57.7783 59.8633 57.5517 59.63 57.265 59.47C56.985 59.3033 56.675 59.22 56.335 59.22C55.995 59.22 55.685 59.3 55.405 59.46C55.125 59.62 54.9017 59.8533 54.735 60.16C54.5683 60.4667 54.485 60.8267 54.485 61.24C54.485 61.66 54.5683 62.0267 54.735 62.34C54.9017 62.6467 55.125 62.8833 55.405 63.05C55.685 63.21 55.995 63.29 56.335 63.29C56.675 63.29 56.985 63.21 57.265 63.05C57.5517 62.8833 57.7783 62.6467 57.945 62.34C58.1117 62.0267 58.195 61.6633 58.195 61.25ZM65.6528 61.05C65.6528 61.2233 65.6428 61.4067 65.6228 61.6H61.2428C61.2761 62.14 61.4595 62.5633 61.7928 62.87C62.1328 63.17 62.5428 63.32 63.0228 63.32C63.4161 63.32 63.7428 63.23 64.0028 63.05C64.2695 62.8633 64.4561 62.6167 64.5628 62.31H65.5428C65.3961 62.8367 65.1028 63.2667 64.6628 63.6C64.2228 63.9267 63.6761 64.09 63.0228 64.09C62.5028 64.09 62.0361 63.9733 61.6228 63.74C61.2161 63.5067 60.8961 63.1767 60.6628 62.75C60.4295 62.3167 60.3128 61.8167 60.3128 61.25C60.3128 60.6833 60.4261 60.1867 60.6528 59.76C60.8795 59.3333 61.1961 59.0067 61.6028 58.78C62.0161 58.5467 62.4895 58.43 63.0228 58.43C63.5428 58.43 64.0028 58.5433 64.4028 58.77C64.8028 58.9967 65.1095 59.31 65.3228 59.71C65.5428 60.1033 65.6528 60.55 65.6528 61.05ZM64.7128 60.86C64.7128 60.5133 64.6361 60.2167 64.4828 59.97C64.3295 59.7167 64.1195 59.5267 63.8528 59.4C63.5928 59.2667 63.3028 59.2 62.9828 59.2C62.5228 59.2 62.1295 59.3467 61.8028 59.64C61.4828 59.9333 61.2995 60.34 61.2528 60.86H64.7128ZM73.19 64L71.53 61.15H70.43V64H69.52V57.03H71.77C72.2967 57.03 72.74 57.12 73.1 57.3C73.4667 57.48 73.74 57.7233 73.92 58.03C74.1 58.3367 74.19 58.6867 74.19 59.08C74.19 59.56 74.05 59.9833 73.77 60.35C73.4967 60.7167 73.0833 60.96 72.53 61.08L74.28 64H73.19ZM70.43 60.42H71.77C72.2633 60.42 72.6333 60.3 72.88 60.06C73.1267 59.8133 73.25 59.4867 73.25 59.08C73.25 58.6667 73.1267 58.3467 72.88 58.12C72.64 57.8933 72.27 57.78 71.77 57.78H70.43V60.42ZM80.604 61.05C80.604 61.2233 80.594 61.4067 80.574 61.6H76.194C76.2273 62.14 76.4107 62.5633 76.744 62.87C77.084 63.17 77.494 63.32 77.974 63.32C78.3673 63.32 78.694 63.23 78.954 63.05C79.2207 62.8633 79.4073 62.6167 79.514 62.31H80.494C80.3473 62.8367 80.054 63.2667 79.614 63.6C79.174 63.9267 78.6273 64.09 77.974 64.09C77.454 64.09 76.9873 63.9733 76.574 63.74C76.1673 63.5067 75.8473 63.1767 75.614 62.75C75.3807 62.3167 75.264 61.8167 75.264 61.25C75.264 60.6833 75.3773 60.1867 75.604 59.76C75.8307 59.3333 76.1473 59.0067 76.554 58.78C76.9673 58.5467 77.4407 58.43 77.974 58.43C78.494 58.43 78.954 58.5433 79.354 58.77C79.754 58.9967 80.0607 59.31 80.274 59.71C80.494 60.1033 80.604 60.55 80.604 61.05ZM79.664 60.86C79.664 60.5133 79.5873 60.2167 79.434 59.97C79.2807 59.7167 79.0707 59.5267 78.804 59.4C78.544 59.2667 78.254 59.2 77.934 59.2C77.474 59.2 77.0807 59.3467 76.754 59.64C76.434 59.9333 76.2507 60.34 76.204 60.86H79.664ZM83.7452 64.09C83.3252 64.09 82.9485 64.02 82.6152 63.88C82.2818 63.7333 82.0185 63.5333 81.8252 63.28C81.6318 63.02 81.5252 62.7233 81.5052 62.39H82.4452C82.4718 62.6633 82.5985 62.8867 82.8252 63.06C83.0585 63.2333 83.3618 63.32 83.7352 63.32C84.0818 63.32 84.3552 63.2433 84.5552 63.09C84.7552 62.9367 84.8552 62.7433 84.8552 62.51C84.8552 62.27 84.7485 62.0933 84.5352 61.98C84.3218 61.86 83.9918 61.7433 83.5452 61.63C83.1385 61.5233 82.8052 61.4167 82.5452 61.31C82.2918 61.1967 82.0718 61.0333 81.8852 60.82C81.7052 60.6 81.6152 60.3133 81.6152 59.96C81.6152 59.68 81.6985 59.4233 81.8652 59.19C82.0318 58.9567 82.2685 58.7733 82.5752 58.64C82.8818 58.5 83.2318 58.43 83.6252 58.43C84.2318 58.43 84.7218 58.5833 85.0952 58.89C85.4685 59.1967 85.6685 59.6167 85.6952 60.15H84.7852C84.7652 59.8633 84.6485 59.6333 84.4352 59.46C84.2285 59.2867 83.9485 59.2 83.5952 59.2C83.2685 59.2 83.0085 59.27 82.8152 59.41C82.6218 59.55 82.5252 59.7333 82.5252 59.96C82.5252 60.14 82.5818 60.29 82.6952 60.41C82.8152 60.5233 82.9618 60.6167 83.1352 60.69C83.3152 60.7567 83.5618 60.8333 83.8752 60.92C84.2685 61.0267 84.5885 61.1333 84.8352 61.24C85.0818 61.34 85.2918 61.4933 85.4652 61.7C85.6452 61.9067 85.7385 62.1767 85.7452 62.51C85.7452 62.81 85.6618 63.08 85.4952 63.32C85.3285 63.56 85.0918 63.75 84.7852 63.89C84.4852 64.0233 84.1385 64.09 83.7452 64.09ZM92.0298 61.05C92.0298 61.2233 92.0198 61.4067 91.9998 61.6H87.6198C87.6531 62.14 87.8364 62.5633 88.1698 62.87C88.5098 63.17 88.9198 63.32 89.3998 63.32C89.7931 63.32 90.1198 63.23 90.3798 63.05C90.6464 62.8633 90.8331 62.6167 90.9398 62.31H91.9198C91.7731 62.8367 91.4798 63.2667 91.0398 63.6C90.5998 63.9267 90.0531 64.09 89.3998 64.09C88.8798 64.09 88.4131 63.9733 87.9998 63.74C87.5931 63.5067 87.2731 63.1767 87.0398 62.75C86.8064 62.3167 86.6898 61.8167 86.6898 61.25C86.6898 60.6833 86.8031 60.1867 87.0298 59.76C87.2564 59.3333 87.5731 59.0067 87.9798 58.78C88.3931 58.5467 88.8664 58.43 89.3998 58.43C89.9198 58.43 90.3798 58.5433 90.7798 58.77C91.1798 58.9967 91.4864 59.31 91.6998 59.71C91.9198 60.1033 92.0298 60.55 92.0298 61.05ZM91.0898 60.86C91.0898 60.5133 91.0131 60.2167 90.8598 59.97C90.7064 59.7167 90.4964 59.5267 90.2298 59.4C89.9698 59.2667 89.6798 59.2 89.3598 59.2C88.8998 59.2 88.5064 59.3467 88.1798 59.64C87.8598 59.9333 87.6764 60.34 87.6298 60.86H91.0898ZM94.1409 59.41C94.3009 59.0967 94.5276 58.8533 94.8209 58.68C95.1209 58.5067 95.4843 58.42 95.9109 58.42V59.36H95.6709C94.6509 59.36 94.1409 59.9133 94.1409 61.02V64H93.2309V58.52H94.1409V59.41ZM99.0014 63.16L100.701 58.52H101.671L99.5214 64H98.4614L96.3114 58.52H97.2914L99.0014 63.16ZM102.227 61.24C102.227 60.68 102.34 60.19 102.567 59.77C102.794 59.3433 103.104 59.0133 103.497 58.78C103.897 58.5467 104.34 58.43 104.827 58.43C105.307 58.43 105.724 58.5333 106.077 58.74C106.43 58.9467 106.694 59.2067 106.867 59.52V58.52H107.787V64H106.867V62.98C106.687 63.3 106.417 63.5667 106.057 63.78C105.704 63.9867 105.29 64.09 104.817 64.09C104.33 64.09 103.89 63.97 103.497 63.73C103.104 63.49 102.794 63.1533 102.567 62.72C102.34 62.2867 102.227 61.7933 102.227 61.24ZM106.867 61.25C106.867 60.8367 106.784 60.4767 106.617 60.17C106.45 59.8633 106.224 59.63 105.937 59.47C105.657 59.3033 105.347 59.22 105.007 59.22C104.667 59.22 104.357 59.3 104.077 59.46C103.797 59.62 103.574 59.8533 103.407 60.16C103.24 60.4667 103.157 60.8267 103.157 61.24C103.157 61.66 103.24 62.0267 103.407 62.34C103.574 62.6467 103.797 62.8833 104.077 63.05C104.357 63.21 104.667 63.29 105.007 63.29C105.347 63.29 105.657 63.21 105.937 63.05C106.224 62.8833 106.45 62.6467 106.617 62.34C106.784 62.0267 106.867 61.6633 106.867 61.25ZM111.651 61.24C111.651 60.68 111.764 60.19 111.991 59.77C112.217 59.3433 112.527 59.0133 112.921 58.78C113.321 58.5467 113.767 58.43 114.261 58.43C114.687 58.43 115.084 58.53 115.451 58.73C115.817 58.9233 116.097 59.18 116.291 59.5V56.6H117.211V64H116.291V62.97C116.111 63.2967 115.844 63.5667 115.491 63.78C115.137 63.9867 114.724 64.09 114.251 64.09C113.764 64.09 113.321 63.97 112.921 63.73C112.527 63.49 112.217 63.1533 111.991 62.72C111.764 62.2867 111.651 61.7933 111.651 61.24ZM116.291 61.25C116.291 60.8367 116.207 60.4767 116.041 60.17C115.874 59.8633 115.647 59.63 115.361 59.47C115.081 59.3033 114.771 59.22 114.431 59.22C114.091 59.22 113.781 59.3 113.501 59.46C113.221 59.62 112.997 59.8533 112.831 60.16C112.664 60.4667 112.581 60.8267 112.581 61.24C112.581 61.66 112.664 62.0267 112.831 62.34C112.997 62.6467 113.221 62.8833 113.501 63.05C113.781 63.21 114.091 63.29 114.431 63.29C114.771 63.29 115.081 63.21 115.361 63.05C115.647 62.8833 115.874 62.6467 116.041 62.34C116.207 62.0267 116.291 61.6633 116.291 61.25ZM123.749 61.05C123.749 61.2233 123.739 61.4067 123.719 61.6H119.339C119.372 62.14 119.555 62.5633 119.889 62.87C120.229 63.17 120.639 63.32 121.119 63.32C121.512 63.32 121.839 63.23 122.099 63.05C122.365 62.8633 122.552 62.6167 122.659 62.31H123.639C123.492 62.8367 123.199 63.2667 122.759 63.6C122.319 63.9267 121.772 64.09 121.119 64.09C120.599 64.09 120.132 63.9733 119.719 63.74C119.312 63.5067 118.992 63.1767 118.759 62.75C118.525 62.3167 118.409 61.8167 118.409 61.25C118.409 60.6833 118.522 60.1867 118.749 59.76C118.975 59.3333 119.292 59.0067 119.699 58.78C120.112 58.5467 120.585 58.43 121.119 58.43C121.639 58.43 122.099 58.5433 122.499 58.77C122.899 58.9967 123.205 59.31 123.419 59.71C123.639 60.1033 123.749 60.55 123.749 61.05ZM122.809 60.86C122.809 60.5133 122.732 60.2167 122.579 59.97C122.425 59.7167 122.215 59.5267 121.949 59.4C121.689 59.2667 121.399 59.2 121.079 59.2C120.619 59.2 120.225 59.3467 119.899 59.64C119.579 59.9333 119.395 60.34 119.349 60.86H122.809ZM128.526 59.54C128.712 59.2133 128.986 58.9467 129.346 58.74C129.706 58.5333 130.116 58.43 130.576 58.43C131.069 58.43 131.512 58.5467 131.906 58.78C132.299 59.0133 132.609 59.3433 132.836 59.77C133.062 60.19 133.176 60.68 133.176 61.24C133.176 61.7933 133.062 62.2867 132.836 62.72C132.609 63.1533 132.296 63.49 131.896 63.73C131.502 63.97 131.062 64.09 130.576 64.09C130.102 64.09 129.686 63.9867 129.326 63.78C128.972 63.5733 128.706 63.31 128.526 62.99V64H127.616V56.6H128.526V59.54ZM132.246 61.24C132.246 60.8267 132.162 60.4667 131.996 60.16C131.829 59.8533 131.602 59.62 131.316 59.46C131.036 59.3 130.726 59.22 130.386 59.22C130.052 59.22 129.742 59.3033 129.456 59.47C129.176 59.63 128.949 59.8667 128.776 60.18C128.609 60.4867 128.526 60.8433 128.526 61.25C128.526 61.6633 128.609 62.0267 128.776 62.34C128.949 62.6467 129.176 62.8833 129.456 63.05C129.742 63.21 130.052 63.29 130.386 63.29C130.726 63.29 131.036 63.21 131.316 63.05C131.602 62.8833 131.829 62.6467 131.996 62.34C132.162 62.0267 132.246 61.66 132.246 61.24ZM134.844 57.63C134.67 57.63 134.524 57.57 134.404 57.45C134.284 57.33 134.224 57.1833 134.224 57.01C134.224 56.8367 134.284 56.69 134.404 56.57C134.524 56.45 134.67 56.39 134.844 56.39C135.01 56.39 135.15 56.45 135.264 56.57C135.384 56.69 135.444 56.8367 135.444 57.01C135.444 57.1833 135.384 57.33 135.264 57.45C135.15 57.57 135.01 57.63 134.844 57.63ZM135.284 58.52V64H134.374V58.52H135.284ZM137.744 56.6V64H136.834V56.6H137.744ZM142.015 58.42C142.429 58.42 142.802 58.51 143.135 58.69C143.469 58.8633 143.729 59.1267 143.915 59.48C144.109 59.8333 144.205 60.2633 144.205 60.77V64H143.305V60.9C143.305 60.3533 143.169 59.9367 142.895 59.65C142.622 59.3567 142.249 59.21 141.775 59.21C141.295 59.21 140.912 59.36 140.625 59.66C140.345 59.96 140.205 60.3967 140.205 60.97V64H139.295V56.6H140.205V59.3C140.385 59.02 140.632 58.8033 140.945 58.65C141.265 58.4967 141.622 58.42 142.015 58.42ZM150.692 61.05C150.692 61.2233 150.682 61.4067 150.662 61.6H146.282C146.315 62.14 146.499 62.5633 146.832 62.87C147.172 63.17 147.582 63.32 148.062 63.32C148.455 63.32 148.782 63.23 149.042 63.05C149.309 62.8633 149.495 62.6167 149.602 62.31H150.582C150.435 62.8367 150.142 63.2667 149.702 63.6C149.262 63.9267 148.715 64.09 148.062 64.09C147.542 64.09 147.075 63.9733 146.662 63.74C146.255 63.5067 145.935 63.1767 145.702 62.75C145.469 62.3167 145.352 61.8167 145.352 61.25C145.352 60.6833 145.465 60.1867 145.692 59.76C145.919 59.3333 146.235 59.0067 146.642 58.78C147.055 58.5467 147.529 58.43 148.062 58.43C148.582 58.43 149.042 58.5433 149.442 58.77C149.842 58.9967 150.149 59.31 150.362 59.71C150.582 60.1033 150.692 60.55 150.692 61.05ZM149.752 60.86C149.752 60.5133 149.675 60.2167 149.522 59.97C149.369 59.7167 149.159 59.5267 148.892 59.4C148.632 59.2667 148.342 59.2 148.022 59.2C147.562 59.2 147.169 59.3467 146.842 59.64C146.522 59.9333 146.339 60.34 146.292 60.86H149.752ZM153.003 59.27V62.5C153.003 62.7667 153.06 62.9567 153.173 63.07C153.286 63.1767 153.483 63.23 153.763 63.23H154.433V64H153.613C153.106 64 152.726 63.8833 152.473 63.65C152.22 63.4167 152.093 63.0333 152.093 62.5V59.27H151.383V58.52H152.093V57.14H153.003V58.52H154.433V59.27H153.003ZM160.536 61.05C160.536 61.2233 160.526 61.4067 160.506 61.6H156.126C156.159 62.14 156.342 62.5633 156.676 62.87C157.016 63.17 157.426 63.32 157.906 63.32C158.299 63.32 158.626 63.23 158.886 63.05C159.152 62.8633 159.339 62.6167 159.446 62.31H160.426C160.279 62.8367 159.986 63.2667 159.546 63.6C159.106 63.9267 158.559 64.09 157.906 64.09C157.386 64.09 156.919 63.9733 156.506 63.74C156.099 63.5067 155.779 63.1767 155.546 62.75C155.312 62.3167 155.196 61.8167 155.196 61.25C155.196 60.6833 155.309 60.1867 155.536 59.76C155.762 59.3333 156.079 59.0067 156.486 58.78C156.899 58.5467 157.372 58.43 157.906 58.43C158.426 58.43 158.886 58.5433 159.286 58.77C159.686 58.9967 159.992 59.31 160.206 59.71C160.426 60.1033 160.536 60.55 160.536 61.05ZM159.596 60.86C159.596 60.5133 159.519 60.2167 159.366 59.97C159.212 59.7167 159.002 59.5267 158.736 59.4C158.476 59.2667 158.186 59.2 157.866 59.2C157.406 59.2 157.012 59.3467 156.686 59.64C156.366 59.9333 156.182 60.34 156.136 60.86H159.596ZM163.677 64.09C163.257 64.09 162.88 64.02 162.547 63.88C162.213 63.7333 161.95 63.5333 161.757 63.28C161.563 63.02 161.457 62.7233 161.437 62.39H162.377C162.403 62.6633 162.53 62.8867 162.757 63.06C162.99 63.2333 163.293 63.32 163.667 63.32C164.013 63.32 164.287 63.2433 164.487 63.09C164.687 62.9367 164.787 62.7433 164.787 62.51C164.787 62.27 164.68 62.0933 164.467 61.98C164.253 61.86 163.923 61.7433 163.477 61.63C163.07 61.5233 162.737 61.4167 162.477 61.31C162.223 61.1967 162.003 61.0333 161.817 60.82C161.637 60.6 161.547 60.3133 161.547 59.96C161.547 59.68 161.63 59.4233 161.797 59.19C161.963 58.9567 162.2 58.7733 162.507 58.64C162.813 58.5 163.163 58.43 163.557 58.43C164.163 58.43 164.653 58.5833 165.027 58.89C165.4 59.1967 165.6 59.6167 165.627 60.15H164.717C164.697 59.8633 164.58 59.6333 164.367 59.46C164.16 59.2867 163.88 59.2 163.527 59.2C163.2 59.2 162.94 59.27 162.747 59.41C162.553 59.55 162.457 59.7333 162.457 59.96C162.457 60.14 162.513 60.29 162.627 60.41C162.747 60.5233 162.893 60.6167 163.067 60.69C163.247 60.7567 163.493 60.8333 163.807 60.92C164.2 61.0267 164.52 61.1333 164.767 61.24C165.013 61.34 165.223 61.4933 165.397 61.7C165.577 61.9067 165.67 62.1767 165.677 62.51C165.677 62.81 165.593 63.08 165.427 63.32C165.26 63.56 165.023 63.75 164.717 63.89C164.417 64.0233 164.07 64.09 163.677 64.09Z" fill="#FFFFFF"/>
</svg>
